# xmcd
#
# Track frame offsets:
#	150
#	11251
#	24402
#	36513
#	47556
#	60225
#	78019
#	92140
#	112289
#	132296
#	146486
#	156737
#	170786
#	184841
#	194675
#	209726
#
# Disc length: 2979 seconds
#
# Revision: 1
# Processed by: cddbd v1.5.2PL0 Copyright (c) Steve Scherf et al.
# Submitted via: audiograbber 1.83.01
#
DISCID=e80ba110
DTITLE=Tom Astor - Kameraden der Straße
DYEAR=1994
DGENRE=Country
TTITLE0=Zwei Trucker wie wir
TTITLE1=Nur auf der Straße
TTITLE2=Trucker Lady
TTITLE3=Truckers Glück
TTITLE4=Geistertruck
TTITLE5=Devil
TTITLE6=Übermüdung tötet
TTITLE7=Partner fahr rechts
TTITLE8=Kameraden der Straße
TTITLE9=Der kleine Trucker
TTITLE10=Rollende Giganten
TTITLE11=Irgendwo am Horizont
TTITLE12=Panamerican Highway
TTITLE13=Und nachts, wenn alles schlief
TTITLE14=Das schöne Mädchen von der Autobahn
TTITLE15=Viel erlebt und viel versäumt
EXTD=Gold Serie
EXTT0=
EXTT1=
EXTT2=
EXTT3=
EXTT4=
EXTT5=
EXTT6=
EXTT7=
EXTT8=
EXTT9=
EXTT10=
EXTT11=
EXTT12=
EXTT13=
EXTT14=
EXTT15=Banks of the Ohio
PLAYORDER=
